<svg width="20" height="20" viewBox="0 0 20 20" fill="none" xmlns="http://www.w3.org/2000/svg">
<path fill-rule="evenodd" clip-rule="evenodd" d="M4.76982 0.884952C8.24584 0.499653 11.7538 0.499653 15.2298 0.884952C17.1288 1.09695 18.6598 2.59195 18.8828 4.49795C19.295 8.02261 19.295 11.5833 18.8828 15.108C18.6598 17.014 17.1288 18.509 15.2308 18.722C11.7545 19.1074 8.24617 19.1074 4.76982 18.722C2.87082 18.509 1.33982 17.014 1.11682 15.109C0.704549 11.584 0.704549 8.02294 1.11682 4.49795C1.33982 2.59195 2.87082 1.09695 4.76982 0.884952ZM14.9998 3.80295C14.7346 3.80295 14.4802 3.90831 14.2927 4.09585C14.1052 4.28338 13.9998 4.53774 13.9998 4.80295C13.9998 5.06817 14.1052 5.32252 14.2927 5.51006C14.4802 5.6976 14.7346 5.80295 14.9998 5.80295C15.265 5.80295 15.5194 5.6976 15.7069 5.51006C15.8945 5.32252 15.9998 5.06817 15.9998 4.80295C15.9998 4.53774 15.8945 4.28338 15.7069 4.09585C15.5194 3.90831 15.265 3.80295 14.9998 3.80295ZM5.24982 9.80295C5.24982 8.54317 5.75027 7.33499 6.64106 6.4442C7.53186 5.5534 8.74004 5.05295 9.99982 5.05295C11.2596 5.05295 12.4678 5.5534 13.3586 6.4442C14.2494 7.33499 14.7498 8.54317 14.7498 9.80295C14.7498 11.0627 14.2494 12.2709 13.3586 13.1617C12.4678 14.0525 11.2596 14.553 9.99982 14.553C8.74004 14.553 7.53186 14.0525 6.64106 13.1617C5.75027 12.2709 5.24982 11.0627 5.24982 9.80295Z" fill="#CECECE"/>
</svg>
