<svg width="24" height="25" viewBox="0 0 24 25" fill="none" xmlns="http://www.w3.org/2000/svg">
<path d="M19 3.80295C19.5304 3.80295 20.0391 4.01366 20.4142 4.38873C20.7893 4.76381 21 5.27252 21 5.80295V19.8029C21 20.3334 20.7893 20.8421 20.4142 21.2172C20.0391 21.5922 19.5304 21.8029 19 21.8029H5C4.46957 21.8029 3.96086 21.5922 3.58579 21.2172C3.21071 20.8421 3 20.3334 3 19.8029V5.80295C3 5.27252 3.21071 4.76381 3.58579 4.38873C3.96086 4.01366 4.46957 3.80295 5 3.80295H19ZM18.5 19.3029V14.0029C18.5 13.1383 18.1565 12.3091 17.5452 11.6978C16.9338 11.0864 16.1046 10.7429 15.24 10.7429C14.39 10.7429 13.4 11.2629 12.92 12.0429V10.9329H10.13V19.3029H12.92V14.3729C12.92 13.6029 13.54 12.9729 14.31 12.9729C14.6813 12.9729 15.0374 13.1204 15.2999 13.383C15.5625 13.6455 15.71 14.0016 15.71 14.3729V19.3029H18.5ZM6.88 9.36295C7.32556 9.36295 7.75288 9.18595 8.06794 8.87089C8.383 8.55583 8.56 8.12851 8.56 7.68295C8.56 6.75295 7.81 5.99295 6.88 5.99295C6.43178 5.99295 6.00193 6.171 5.68499 6.48794C5.36805 6.80487 5.19 7.23473 5.19 7.68295C5.19 8.61295 5.95 9.36295 6.88 9.36295ZM8.27 19.3029V10.9329H5.5V19.3029H8.27Z" fill="#CECECE"/>
</svg>
