<svg width="36" height="31" viewBox="0 0 36 31" fill="none" xmlns="http://www.w3.org/2000/svg">
<g clip-path="url(#clip0_1629_4127)">
<path d="M8.19255 10.9233C8.8631 12.1461 9.50981 13.3814 10.1327 14.6292C10.2182 14.7927 10.2994 14.8665 10.4923 14.8635C10.7045 14.8626 10.9646 14.7326 11.1307 14.6089C11.3515 14.4504 11.5691 14.2508 11.7012 14.0041C11.7824 13.8574 11.931 13.5959 11.843 13.4277C11.1796 12.0909 10.485 10.7642 9.76442 9.45739C9.68893 9.31319 9.37882 9.35919 9.27338 9.38989C9.0336 9.45418 8.78163 9.62284 8.60676 9.78787C8.321 10.0661 7.9568 10.5078 8.18275 10.9162L8.19255 10.9233Z" fill="#BA0000"/>
<path d="M13.4046 7.71714L15.2546 11.3784C15.3401 11.5418 15.4213 11.6157 15.6142 11.6127C15.8264 11.6118 16.0864 11.4818 16.2526 11.3581C16.4734 11.1996 16.6909 11 16.823 10.7532C16.8995 10.6091 17.0529 10.3451 16.9648 10.1768L15.1149 6.51557C15.0294 6.35215 14.9482 6.2783 14.7553 6.28129C14.5431 6.28215 14.283 6.41217 14.1169 6.53588C13.8961 6.69437 13.6785 6.89399 13.5464 7.14074C13.47 7.28487 13.3166 7.54891 13.4046 7.71714Z" fill="#BA0000"/>
<path d="M6.29921 25.7367C10.3397 27.3264 14.8361 27.0363 18.7996 25.4267C22.7632 23.8171 26.3569 20.5027 28.6468 16.6828C29.9593 14.4892 30.8888 12.098 31.4882 9.61018C31.6162 9.06548 30.9046 9.16858 30.6277 9.30128C30.1239 9.53441 29.7171 10.0107 29.5865 10.5506C28.6891 14.3029 26.8336 17.9199 24.0412 20.5943C21.2488 23.2688 17.7961 24.7517 14.0509 24.9794C11.8904 25.1122 9.74663 24.7893 7.72288 23.9993C7.00534 23.7197 5.48444 25.4223 6.29444 25.7392L6.29921 25.7367Z" fill="#BA0000"/>
</g>
<defs>
<clipPath id="clip0_1629_4127">
<rect width="30" height="19" fill="white" transform="translate(0 13.9141) rotate(-27.6331)"/>
</clipPath>
</defs>
</svg>
