<svg width="24" height="25" viewBox="0 0 24 25" fill="none" xmlns="http://www.w3.org/2000/svg">
<g clip-path="url(#clip0_1629_4114)">
<path d="M10 15.4002L15.19 12.2802L10 9.16021V15.4002ZM21.56 7.25701C21.69 7.74581 21.78 8.40101 21.84 9.23301C21.91 10.065 21.94 10.7826 21.94 11.4066L22 12.2802C22 14.5578 21.84 16.2322 21.56 17.3034C21.31 18.2394 20.73 18.8426 19.83 19.1026C19.36 19.2378 18.5 19.3314 17.18 19.3938C15.88 19.4666 14.69 19.4978 13.59 19.4978L12 19.5602C7.81 19.5602 5.2 19.3938 4.17 19.1026C3.27 18.8426 2.69 18.2394 2.44 17.3034C2.31 16.8146 2.22 16.1594 2.16 15.3274C2.09 14.4954 2.06 13.7778 2.06 13.1538L2 12.2802C2 10.0026 2.16 8.32821 2.44 7.25701C2.69 6.32101 3.27 5.71781 4.17 5.45781C4.64 5.32261 5.5 5.22901 6.82 5.16661C8.12 5.09381 9.31 5.06261 10.41 5.06261L12 5.00021C16.19 5.00021 18.8 5.16661 19.83 5.45781C20.73 5.71781 21.31 6.32101 21.56 7.25701Z" fill="#CECECE"/>
</g>
<defs>
<clipPath id="clip0_1629_4114">
<rect width="24" height="24" fill="white" transform="translate(0 0.802948)"/>
</clipPath>
</defs>
</svg>
