<svg width="241" height="208" viewBox="0 0 241 208" fill="none" xmlns="http://www.w3.org/2000/svg">
<mask id="mask0_1043_3470" style="mask-type:luminance" maskUnits="userSpaceOnUse" x="0" y="0" width="241" height="154">
<path d="M0.782227 0H240.257V153.397H0.782227V0Z" fill="white"/>
</mask>
<g mask="url(#mask0_1043_3470)">
<path d="M115.949 26.1865L114.992 26.6331L84.0275 66.3173L34.9243 3.13623H0.894043V150.033H30.4215V43.3167L80.4865 107.212H86.2789L98.6247 91.8786C104.227 124.655 129.59 153.397 180.469 153.397C203.104 153.397 223.975 146.49 240.152 131.602L219.905 112.502C209.616 122.144 194.204 127.389 180.421 127.389C141.751 127.389 126.672 101.967 126.339 77.6167C126.191 52.9536 142.564 26.4991 180.421 26.4991C194.204 26.4991 208.035 30.8512 218.278 40.3541L238.091 22.4201C222.062 7.5329 201.862 0 180.516 0C150.936 0 129.59 10.5351 115.949 26.1865Z" fill="white"/>
</g>
<mask id="mask1_1043_3470" style="mask-type:luminance" maskUnits="userSpaceOnUse" x="164" y="52" width="65" height="70">
<path d="M164.065 52.4574H228.183V121.057H164.065V52.4574Z" fill="white"/>
</mask>
<g mask="url(#mask1_1043_3470)">
<path d="M176.462 119.951C173.709 116.969 171.394 114.79 164.196 109.029C167.932 97.8832 180.584 88.147 199.78 76.0487C218.473 64.273 223.61 58.5216 220.143 53.2664C220.735 54.1994 221.57 55.4201 222.125 56.3729C224.36 60.576 224.445 60.7398 225.423 63.3252C226.918 67.8955 226.976 68.0742 227.484 70.7837C227.753 72.7339 228.055 75.3391 228.176 77.3042C227.632 84.8371 219.139 89.869 201.529 99.63C190.388 105.808 177.757 112.81 176.462 119.951Z" fill="#737373"/>
</g>
<path d="M178.705 123.435C179.371 119.271 189.518 114.383 202.366 108.195C218.052 100.642 224.013 97.0297 226.228 91.7695C225.736 93.154 225.086 95.005 224.515 96.3647C222.443 100.632 222.364 100.801 220.847 103.133L220.086 104.25C216.646 108.364 210.954 110.934 194.443 117.058C188.64 119.207 182.061 121.648 178.705 123.435Z" fill="#737373"/>
<path d="M178.705 123.434C204.422 116.125 210.531 114.388 214.902 110.443C213.517 111.743 211.614 113.435 210.14 114.646C206.81 117.048 206.298 117.415 203.074 119.216L200.838 120.338C197.033 121.871 189.586 122.913 178.705 123.434Z" fill="#737373"/>
<mask id="mask2_1043_3470" style="mask-type:luminance" maskUnits="userSpaceOnUse" x="176" y="33" width="53" height="45">
<path d="M176.24 33.4911H228.181V77.8647H176.24V33.4911Z" fill="white"/>
</mask>
<g mask="url(#mask2_1043_3470)">
<path d="M228.177 77.2994C228.034 75.3392 227.775 72.729 227.485 70.7838C226.396 65.9951 226.375 65.9008 225.424 63.3253C223.584 58.9435 223.51 58.7748 222.126 56.373C221.534 55.4401 220.773 54.1747 220.144 53.2666C216.872 49.3016 211.836 46.9742 199.294 42.4089C191.657 39.6299 183.001 36.4738 178.529 33.9877C171.231 39.888 192.836 51.7431 205.742 58.8294C220.984 67.196 227.294 70.6548 228.177 77.3043" fill="#F4042E"/>
</g>
<mask id="mask3_1043_3470" style="mask-type:luminance" maskUnits="userSpaceOnUse" x="162" y="33" width="66" height="72">
<path d="M162.711 33.4911H227.654V104.543H162.711V33.4911Z" fill="white"/>
</mask>
<g mask="url(#mask3_1043_3470)">
<path d="M220.085 104.25L220.846 103.134C223.299 99.0594 223.394 98.9007 224.514 96.3649C225.048 94.9953 225.772 93.1641 226.227 91.7697C227.495 85.1747 221.29 80.6341 204.553 70.2677C171.331 49.6936 162.574 37.4862 178.529 33.9877C165.333 35.3772 149.224 44.7213 182.715 70.1436C193.755 78.5251 206.217 85.1697 216.465 94.5189C222.495 100.022 221.216 102.265 220.085 104.25Z" fill="#F4042E"/>
</g>
<mask id="mask4_1043_3470" style="mask-type:luminance" maskUnits="userSpaceOnUse" x="142" y="33" width="75" height="89">
<path d="M142.416 33.4911H216.829V121.057H142.416V33.4911Z" fill="white"/>
</mask>
<g mask="url(#mask4_1043_3470)">
<path d="M169.486 33.7689C157.283 35.8581 110.463 56.3478 182.598 103.381C204.959 117.961 204.959 117.961 200.837 120.338L203.073 119.216C206.46 117.266 207.163 116.859 210.139 114.646C211.608 113.425 213.521 111.748 214.901 110.443C218.917 105.525 213.172 101.496 194.152 88.1368C120.484 36.4089 177.916 33.9873 178.529 33.9873C175.427 33.6002 172.404 33.5357 169.486 33.7689Z" fill="#F4042E"/>
</g>
<mask id="mask5_1043_3470" style="mask-type:luminance" maskUnits="userSpaceOnUse" x="130" y="37" width="64" height="88">
<path d="M130.241 37.2131H193.83V124.958H130.241V37.2131Z" fill="white"/>
</mask>
<g mask="url(#mask5_1043_3470)">
<path d="M154.161 38.2105C150.884 40.0962 148.723 41.3467 144.976 44.5127C141.662 47.6043 141.392 47.8573 139.442 50.1649C136.62 53.8569 136.451 54.0752 135.019 56.5167C134.48 57.539 133.724 58.8838 133.232 59.9259C126.954 75.076 132.72 87.1694 138.665 94.6427C142.682 99.6944 152.095 111.525 182.605 123.886C184.735 124.75 184.74 124.75 184.915 124.903L185.85 124.784C187.647 124.511 187.716 124.501 188.688 124.313C189.661 124.104 190.95 123.812 191.912 123.578C192.282 123.434 192.673 123.018 192.837 122.675C192.129 121.45 190.855 120.616 183.112 116.318C170.397 109.262 146.725 96.1215 138.861 78.6738C128.703 56.1247 144.4 43.4756 154.663 37.9475C154.494 38.0368 154.325 38.1211 154.161 38.2105Z" fill="#D9D9D9"/>
</g>
<path d="M5.96428 200.001C5.34065 199.921 4.13038 199.882 2.32818 199.882H0.742676V175.169C1.58828 175.224 2.51844 175.248 3.53317 175.248C4.54789 175.248 5.25609 175.204 5.66832 175.109L12.3063 185.669L18.6695 175.109C19.0923 175.204 19.8956 175.248 21.0795 175.248C22.2633 175.248 23.278 175.224 24.1236 175.169V199.882H22.5381C20.7306 199.882 19.5204 199.921 18.902 200.001V183.406L12.4332 194.224L5.96428 184.26V200.001Z" fill="white"/>
<path d="M29.5278 190.354C29.5278 188.915 29.7868 187.575 30.31 186.344C30.8279 185.114 31.5679 184.037 32.5297 183.109C34.5856 181.139 37.2704 180.151 40.5841 180.151C43.3852 180.151 45.6366 181.025 47.3278 182.772C49.0031 184.454 49.8435 186.563 49.8435 189.104C49.8435 190.086 49.7589 190.751 49.5898 191.108C48.2791 191.456 45.6049 191.624 41.5777 191.624H34.6226C34.9608 192.949 35.7536 193.982 37.0114 194.721C38.264 195.45 39.8918 195.813 41.8948 195.813C43.9771 195.813 45.7687 195.465 47.2644 194.761C47.6555 194.577 47.9514 194.398 48.1523 194.225C48.1206 194.756 48.0941 195.292 48.0677 195.833L47.8352 198.711C46.831 199.361 45.2191 199.802 42.9941 200.041C42.3282 200.12 41.694 200.16 41.0915 200.16C37.7513 200.16 34.9873 199.247 32.8045 197.421C30.6165 195.584 29.5278 193.227 29.5278 190.354ZM44.5796 188.032C44.0405 185.372 42.5079 184.042 39.971 184.042C37.968 184.042 36.4512 184.851 35.4259 186.464C35.0982 186.97 34.8551 187.516 34.686 188.111C34.9925 188.111 35.3836 188.121 35.8487 188.131H37.3074C37.7989 188.146 38.264 188.151 38.7026 188.151H39.8442C40.5048 188.151 41.1602 188.146 41.8102 188.131L43.4169 188.091C43.8502 188.081 44.2413 188.061 44.5796 188.032Z" fill="white"/>
<path d="M59.3086 197.52C59.3086 198.607 59.3561 199.396 59.4565 199.882H54.5098V180.529H59.3086V182.176C61.0421 180.826 62.8918 180.151 64.8684 180.151C67.0247 180.151 68.7423 180.841 70.0266 182.216C71.3214 183.595 71.9715 185.407 71.9715 187.655V195.039C71.9715 197.118 71.9979 198.368 72.056 198.79C72.1248 199.217 72.2146 199.485 72.3309 199.604C72.4419 199.723 72.5317 199.837 72.6057 199.941L72.5845 200.021C71.5117 199.927 70.7295 199.882 70.238 199.882H68.8639C68.4411 199.882 67.8756 199.902 67.1727 199.941V189.838C67.1727 186.225 65.9994 184.419 63.6634 184.419C61.9299 184.419 60.4766 185.263 59.3086 186.94V197.52Z" fill="white"/>
<path d="M86.8691 195.812C88.5603 195.812 89.7231 195.395 90.3573 194.562H90.5264L90.5898 198.869C89.9397 199.465 88.74 199.862 86.996 200.06C86.515 200.125 85.9231 200.159 85.2202 200.159C84.512 200.159 83.751 200.04 82.9371 199.802C82.1179 199.554 81.4203 199.147 80.8442 198.591C79.6445 197.44 79.0473 195.644 79.0473 193.192V184.796H76.0666C76.0507 184.429 76.0454 184.056 76.0454 183.684V180.846C76.0454 180.637 76.0507 180.528 76.0666 180.528H79.0473V175.248H83.8672V180.528H89.3003V184.796H83.8672V192.339C83.8672 194.284 84.438 195.39 85.5796 195.653C85.9601 195.763 86.3882 195.812 86.8691 195.812Z" fill="white"/>
<path d="M93.0747 190.314C93.0747 188.955 93.3178 187.65 93.8146 186.404C94.3061 185.163 95.0196 184.077 95.9498 183.149C97.9475 181.154 100.558 180.151 103.772 180.151C106.969 180.151 109.506 181.099 111.382 182.99C113.184 184.791 114.088 187.133 114.088 190.017C114.088 192.89 113.158 195.272 111.297 197.162C109.337 199.162 106.742 200.16 103.518 200.16C100.178 200.16 97.5564 199.182 95.6538 197.222C93.9309 195.426 93.0747 193.123 93.0747 190.314ZM97.8735 190.195C97.8735 190.979 98.0056 191.734 98.2752 192.458C98.5553 193.188 98.9569 193.808 99.4802 194.324C100.564 195.45 101.996 196.011 103.772 196.011C105.421 196.011 106.715 195.465 107.661 194.364C108.576 193.307 109.035 191.922 109.035 190.215C109.035 188.483 108.56 187.089 107.619 186.027C106.604 184.89 105.214 184.32 103.454 184.32C101.663 184.32 100.262 184.93 99.2476 186.146C98.328 187.258 97.8735 188.607 97.8735 190.195Z" fill="white"/>
<path d="M122.833 197.798C122.833 198.87 122.86 199.564 122.918 199.882H118.013V180.529H122.833V181.958C123.959 180.757 125.137 180.151 126.364 180.151C127.59 180.151 128.562 180.3 129.281 180.588L128.921 185.57L128.837 185.63C128.372 184.866 127.421 184.479 125.983 184.479C125.433 184.479 124.868 184.657 124.292 185.015C123.71 185.362 123.224 185.823 122.833 186.404V197.798Z" fill="white"/>
<path d="M157.324 174.792C159.776 174.792 161.869 175.189 163.603 175.983V181.66L163.56 181.7C162.826 180.628 161.277 179.923 158.909 179.576C158.217 179.472 157.335 179.417 156.267 179.417C155.21 179.417 154.164 179.61 153.138 179.993C152.108 180.365 151.262 180.896 150.601 181.581C149.333 182.93 148.699 184.851 148.699 187.337C148.699 190.25 149.507 192.413 151.13 193.828C152.467 195.009 154.243 195.594 156.457 195.594C158.952 195.594 160.971 195.098 162.524 194.106C163.085 193.748 163.566 193.307 163.962 192.776L164.025 192.815V197.996C162.007 199.559 159.295 200.338 155.886 200.338C151.88 200.338 148.741 199.142 146.458 196.746C144.286 194.473 143.202 191.446 143.202 187.674C143.202 183.695 144.392 180.548 146.775 178.246C149.196 175.943 152.715 174.792 157.324 174.792Z" fill="white"/>
<path d="M166.61 206.333L167.899 205.34C169.855 203.841 171.483 201.638 172.783 198.73L173.692 196.686L166.124 180.528H171.641L176.376 191.723L180.774 180.528H186.46C185.784 181.416 184.949 183.069 183.966 185.491L181.006 192.359C177.042 201.102 173.935 206.318 171.683 208L166.61 206.333Z" fill="white"/>
<path d="M204.836 198.076C203.356 199.465 201.041 200.16 197.902 200.16C194.857 200.16 192.363 199.286 190.418 197.54C188.457 195.783 187.479 193.441 187.479 190.513C187.479 187.535 188.441 185.089 190.376 183.169C192.432 181.159 195.18 180.151 198.62 180.151C201.041 180.151 203.081 180.658 204.73 181.66L203.948 186.404L203.8 186.384C203.165 185.67 202.5 185.203 201.812 184.975C200.681 184.608 199.55 184.419 198.409 184.419C197.278 184.419 196.39 184.558 195.745 184.836C195.111 185.104 194.561 185.471 194.096 185.947C193.177 186.94 192.722 188.25 192.722 189.878C192.722 192.766 193.785 194.656 195.914 195.555C196.644 195.847 197.421 195.991 198.24 195.991C199.07 195.991 199.788 195.927 200.396 195.793C200.999 195.664 201.559 195.475 202.066 195.237C203.123 194.736 203.847 194.16 204.244 193.51L204.37 193.57L204.836 198.076Z" fill="white"/>
<path d="M213.527 197.798C213.527 198.87 213.548 199.564 213.591 199.882H208.581V172.291H213.527V197.798Z" fill="white"/>
<path d="M218.084 190.354C218.084 188.915 218.343 187.575 218.866 186.344C219.384 185.114 220.124 184.037 221.086 183.109C223.142 181.139 225.827 180.151 229.14 180.151C231.941 180.151 234.193 181.025 235.884 182.772C237.559 184.454 238.4 186.563 238.4 189.104C238.4 190.086 238.315 190.751 238.146 191.108C236.835 191.456 234.161 191.624 230.134 191.624H223.179C223.517 192.949 224.31 193.982 225.568 194.721C226.82 195.45 228.448 195.813 230.451 195.813C232.533 195.813 234.325 195.465 235.821 194.761C236.212 194.577 236.508 194.398 236.708 194.225C236.677 194.756 236.65 195.292 236.624 195.833L236.391 198.711C235.387 199.361 233.775 199.802 231.55 200.041C230.884 200.12 230.25 200.16 229.648 200.16C226.307 200.16 223.543 199.247 221.361 197.421C219.173 195.584 218.084 193.227 218.084 190.354ZM233.136 188.032C232.597 185.372 231.064 184.042 228.527 184.042C226.524 184.042 225.007 184.851 223.982 186.464C223.654 186.97 223.411 187.516 223.242 188.111C223.549 188.111 223.94 188.121 224.405 188.131H225.864C226.355 188.146 226.82 188.151 227.259 188.151H228.4C229.061 188.151 229.716 188.146 230.366 188.131L231.973 188.091C232.406 188.081 232.797 188.061 233.136 188.032Z" fill="white"/>
</svg>
