<svg width="64" height="56" viewBox="0 0 64 56" fill="none" xmlns="http://www.w3.org/2000/svg">
<mask id="mask0_1390_4198" style="mask-type:luminance" maskUnits="userSpaceOnUse" x="0" y="0" width="64" height="42">
<path d="M0 0H64V41.3389H0V0Z" fill="white"/>
</mask>
<g mask="url(#mask0_1390_4198)">
<path d="M30.7769 7.05698L30.5213 7.17734L22.2458 17.8718L9.12295 0.84518H0.0283203V40.4322H7.91956V11.6734L21.2995 28.8926H22.8475L26.147 24.7603C27.6441 33.5932 34.4224 41.3389 48.0199 41.3389C54.0693 41.3389 59.647 39.4774 63.9704 35.4655L58.5594 30.3182C55.8094 32.9165 51.6908 34.3301 48.0071 34.3301C37.6724 34.3301 33.6427 27.479 33.5537 20.9169C33.5142 14.2704 37.8899 7.14123 48.0071 7.14123C51.6908 7.14123 55.3871 8.31406 58.1244 10.875L63.4196 6.04197C59.1357 2.03004 53.7374 0 48.0326 0C40.1272 0 34.4224 2.83911 30.7769 7.05698Z" fill="black"/>
</g>
<mask id="mask1_1390_4198" style="mask-type:luminance" maskUnits="userSpaceOnUse" x="43" y="14" width="18" height="19">
<path d="M43.6392 14.1367H60.7748V32.6237H43.6392V14.1367Z" fill="white"/>
</mask>
<g mask="url(#mask1_1390_4198)">
<path d="M46.9521 32.3253C46.2162 31.5215 45.5976 30.9345 43.6738 29.3818C44.6724 26.3782 48.0538 23.7544 53.1837 20.4941C58.1795 17.3206 59.5524 15.7707 58.6258 14.3545C58.784 14.6059 59.0072 14.9349 59.1555 15.1916C59.7529 16.3243 59.7755 16.3685 60.0368 17.0652C60.4365 18.2969 60.4521 18.345 60.5877 19.0752C60.6597 19.6008 60.7402 20.3028 60.7727 20.8324C60.6272 22.8625 58.3574 24.2185 53.6512 26.849C50.6738 28.5139 47.2981 30.4009 46.9521 32.3253Z" fill="#800000"/>
</g>
<path d="M47.55 33.2648C47.728 32.1428 50.4399 30.8256 53.8735 29.1579C58.0656 27.1226 59.6588 26.149 60.2506 24.7314C60.1193 25.1046 59.9455 25.6034 59.793 25.9698C59.2393 27.1199 59.2181 27.1653 58.8128 27.7939L58.6094 28.0948C57.6899 29.2034 56.1687 29.8961 51.7563 31.5464C50.2054 32.1254 48.4469 32.7834 47.55 33.2648Z" fill="#800000"/>
<path d="M47.55 33.2647C54.4229 31.2949 56.0557 30.8268 57.2238 29.7637C56.8537 30.114 56.3452 30.5701 55.9512 30.8964C55.0613 31.5436 54.9243 31.6426 54.0628 32.128L53.4653 32.4303C52.4484 32.8435 50.4582 33.1243 47.55 33.2647Z" fill="#800000"/>
<mask id="mask2_1390_4198" style="mask-type:luminance" maskUnits="userSpaceOnUse" x="46" y="9" width="15" height="12">
<path d="M46.8892 9.02588H60.7705V20.9841H46.8892V9.02588Z" fill="white"/>
</mask>
<g mask="url(#mask2_1390_4198)">
<path d="M60.7662 20.8312C60.7281 20.303 60.6589 19.5996 60.5812 19.0753C60.2902 17.7848 60.2846 17.7594 60.0303 17.0654C59.5388 15.8845 59.519 15.839 59.149 15.1918C58.9908 14.9404 58.7874 14.5994 58.6193 14.3546C57.745 13.2861 56.399 12.6589 53.0473 11.4286C51.0063 10.6797 48.6928 9.82917 47.4979 9.15918C45.5473 10.7492 51.3213 13.9441 54.7705 15.8538C58.8439 18.1085 60.5303 19.0406 60.7662 20.8326" fill="#F4042E"/>
</g>
<mask id="mask3_1390_4198" style="mask-type:luminance" maskUnits="userSpaceOnUse" x="43" y="9" width="18" height="20">
<path d="M43.2756 9.02588H60.6316V28.1735H43.2756V9.02588Z" fill="white"/>
</mask>
<g mask="url(#mask3_1390_4198)">
<path d="M58.6092 28.0942L58.8126 27.7933C59.4679 26.6953 59.4933 26.6525 59.7928 25.9692C59.9354 25.6001 60.1289 25.1066 60.2504 24.7308C60.5894 22.9535 58.9312 21.7299 54.458 18.9363C45.5795 13.3918 43.2391 10.102 47.5032 9.15918C43.9764 9.53363 39.6713 12.0518 48.6219 18.9028C51.5724 21.1615 54.903 22.9522 57.6417 25.4717C59.2532 26.9548 58.9114 27.5592 58.6092 28.0942Z" fill="#F4042E"/>
</g>
<mask id="mask4_1390_4198" style="mask-type:luminance" maskUnits="userSpaceOnUse" x="37" y="9" width="21" height="24">
<path d="M37.8535 9.02588H57.7405V32.624H37.8535V9.02588Z" fill="white"/>
</mask>
<g mask="url(#mask4_1390_4198)">
<path d="M45.0893 9.10001C41.828 9.66302 29.3153 15.1848 48.5936 27.8598C54.5696 31.7888 54.5696 31.7888 53.4679 32.4294L54.0653 32.1271C54.9707 31.6016 55.1585 31.4919 55.9537 30.8955C56.3464 30.5665 56.8577 30.1145 57.2263 29.7628C58.2998 28.4375 56.7645 27.3516 51.6811 23.7516C31.9933 9.81146 47.3422 9.15885 47.506 9.15885C46.6769 9.05454 45.869 9.03716 45.0893 9.10001Z" fill="#F4042E"/>
</g>
<mask id="mask5_1390_4198" style="mask-type:luminance" maskUnits="userSpaceOnUse" x="34" y="10" width="18" height="24">
<path d="M34.5972 10.0288H51.5915V33.6751H34.5972V10.0288Z" fill="white"/>
</mask>
<g mask="url(#mask5_1390_4198)">
<path d="M40.9911 10.2974C40.1154 10.8056 39.5377 11.1426 38.5363 11.9958C37.6507 12.829 37.5787 12.8972 37.0575 13.519C36.3033 14.514 36.2581 14.5728 35.8753 15.2308C35.7312 15.5063 35.5293 15.8687 35.3979 16.1495C33.7199 20.2323 35.2609 23.4913 36.8499 25.5053C37.9233 26.8667 40.4389 30.0549 48.5928 33.3861C49.162 33.6188 49.1634 33.6188 49.2101 33.6602L49.4601 33.6281C49.9403 33.5546 49.9586 33.5519 50.2185 33.5011C50.4784 33.4449 50.8231 33.366 51.0801 33.3032C51.179 33.2644 51.2835 33.1521 51.3273 33.0598C51.138 32.7295 50.7976 32.5048 48.7284 31.3467C45.3301 29.445 39.0038 25.9038 36.9021 21.2019C34.1875 15.1251 38.3824 11.7163 41.1253 10.2266C41.0801 10.2506 41.0349 10.2734 40.9911 10.2974Z" fill="#A4011E"/>
</g>
<path d="M1.43189 53.8387C1.2624 53.8173 0.936129 53.8066 0.454491 53.8066H0.0307617V47.1254C0.25675 47.1361 0.505338 47.1414 0.776524 47.1414C1.04771 47.1414 1.2398 47.1294 1.3528 47.104L3.13246 49.9658L4.83867 47.104C4.95167 47.1294 5.16635 47.1414 5.48274 47.1414C5.80195 47.1414 6.07596 47.1361 6.30195 47.1254V53.8066H5.87822C5.39234 53.8066 5.06466 53.8173 4.89517 53.8387V49.3453L3.16635 52.2767L1.43189 49.5861V53.8387Z" fill="black"/>
<path d="M7.75293 51.2338C7.75293 50.842 7.82214 50.4796 7.96197 50.1479C8.10462 49.8136 8.30378 49.5207 8.56084 49.2707C9.11027 48.7398 9.8292 48.4736 10.719 48.4736C11.4719 48.4736 12.0764 48.709 12.5326 49.1797C12.9761 49.6331 13.1993 50.2041 13.1993 50.8915C13.1993 51.1563 13.1781 51.3355 13.1371 51.4318C12.7868 51.5254 12.0693 51.5708 10.9846 51.5708H9.12016C9.21338 51.9319 9.42807 52.2114 9.76423 52.4107C10.099 52.6073 10.534 52.7049 11.0693 52.7049C11.63 52.7049 12.1117 52.6113 12.5156 52.4214C12.6202 52.3719 12.6993 52.3237 12.7529 52.2769C12.7445 52.42 12.736 52.5645 12.7247 52.7102L12.6682 53.4912C12.3998 53.6664 11.9648 53.7854 11.3631 53.8496C11.1894 53.871 11.0213 53.8817 10.8603 53.8817C9.96338 53.8817 9.22186 53.6343 8.63429 53.1382C8.04671 52.6434 7.75293 52.0081 7.75293 51.2338ZM11.7925 50.6026C11.6484 49.8832 11.236 49.5221 10.5552 49.5221C10.0199 49.5221 9.6131 49.7414 9.33485 50.18C9.24728 50.3124 9.18231 50.4582 9.13711 50.6187C9.22327 50.6227 9.32638 50.6267 9.44784 50.6294H9.84333C9.97044 50.6334 10.0947 50.6347 10.2162 50.6347H10.5213C10.6978 50.6347 10.873 50.6334 11.0467 50.6294L11.4817 50.6133C11.5976 50.6107 11.7021 50.6066 11.7925 50.6026Z" fill="black"/>
<path d="M15.7408 53.1649C15.7408 53.4618 15.7535 53.6758 15.7803 53.8068H14.4526V48.5699H15.7408V49.0193C16.2069 48.6555 16.704 48.4736 17.2323 48.4736C17.8114 48.4736 18.2733 48.6595 18.6165 49.03C18.9625 49.4017 19.1363 49.8912 19.1363 50.501V52.4963C19.1363 53.0606 19.1447 53.3989 19.1645 53.5126C19.1829 53.6276 19.2069 53.6998 19.2379 53.7319C19.2676 53.764 19.2916 53.7948 19.3114 53.8229L19.3001 53.8443C19.0134 53.8189 18.8057 53.8068 18.6786 53.8068H18.3057C18.1928 53.8068 18.0416 53.8122 17.8538 53.8229V51.0894C17.8538 50.1132 17.5388 49.6237 16.9103 49.6237C16.4427 49.6237 16.0529 49.8511 15.7408 50.3031V53.1649Z" fill="black"/>
<path d="M23.1359 52.7048C23.5907 52.7048 23.9043 52.5925 24.0737 52.3678H24.1133L24.1302 53.5286C23.9565 53.6931 23.6359 53.8014 23.1698 53.8549C23.0413 53.8723 22.8831 53.8816 22.6952 53.8816C22.5059 53.8816 22.3011 53.8495 22.0794 53.7854C21.8605 53.7185 21.674 53.6075 21.5201 53.4537C21.1952 53.1434 21.0342 52.6593 21.0342 51.9987V49.7253H20.2376C20.2333 49.629 20.2319 49.53 20.2319 49.4257V48.6554C20.2319 48.5993 20.2333 48.5698 20.2376 48.5698H21.0342V47.1416H22.3336V48.5698H23.7856V49.7253H22.3336V51.7687C22.3336 52.2929 22.4862 52.5911 22.7913 52.662C22.893 52.6914 23.0074 52.7048 23.1359 52.7048Z" fill="black"/>
<path d="M24.7927 51.2178C24.7927 50.8514 24.8577 50.4997 24.9905 50.164C25.1261 49.8297 25.3153 49.5355 25.5611 49.2814C26.1035 48.7438 26.804 48.4736 27.6628 48.4736C28.5215 48.4736 29.2023 48.7291 29.708 49.2386C30.1896 49.728 30.4311 50.3606 30.4311 51.1376C30.4311 51.9159 30.1826 52.5591 29.6854 53.0686C29.1571 53.6116 28.4608 53.8817 27.595 53.8817C26.6981 53.8817 25.9961 53.6169 25.4876 53.0847C25.0244 52.6006 24.7927 51.9774 24.7927 51.2178ZM26.0809 51.1857C26.0809 51.397 26.1162 51.6016 26.1882 51.8009C26.2631 51.9974 26.3704 52.1646 26.5102 52.3037C26.804 52.6073 27.1882 52.7584 27.6628 52.7584C28.1035 52.7584 28.4509 52.6113 28.708 52.3144C28.9523 52.0255 29.0752 51.6511 29.0752 51.191C29.0752 50.7243 28.9481 50.3459 28.6967 50.057C28.4255 49.7508 28.0526 49.597 27.578 49.597C27.0992 49.597 26.7249 49.7615 26.4537 50.0891C26.2052 50.3887 26.0809 50.7551 26.0809 51.1857Z" fill="black"/>
<path d="M32.7814 53.2452C32.7814 53.534 32.787 53.7212 32.7983 53.8068H31.4819V48.5699H32.7814V48.9551C33.078 48.6341 33.3915 48.4736 33.7192 48.4736C34.0497 48.4736 34.3124 48.5111 34.5045 48.586L34.4085 49.934L34.3859 49.95C34.2644 49.7441 34.0102 49.6398 33.6232 49.6398C33.472 49.6398 33.3195 49.6879 33.1655 49.7842C33.0144 49.8778 32.8859 50.0022 32.7814 50.1586V53.2452Z" fill="black"/>
<path d="M42.0307 47.0186C42.6889 47.0186 43.2524 47.1282 43.7199 47.3449V48.8747L43.7086 48.8854C43.5123 48.6006 43.0956 48.412 42.4601 48.3184C42.2708 48.2863 42.0335 48.2703 41.7482 48.2703C41.4657 48.2703 41.186 48.3224 40.912 48.4254C40.6366 48.5257 40.4106 48.6701 40.2341 48.8587C39.8908 49.2224 39.7199 49.7413 39.7199 50.4153C39.7199 51.2003 39.936 51.7847 40.3697 52.1699C40.7312 52.4908 41.2072 52.6513 41.799 52.6513C42.4685 52.6513 43.0109 52.5162 43.4262 52.2448C43.5801 52.1485 43.7101 52.0281 43.816 51.881L43.8329 51.8917V53.2932C43.2906 53.7185 42.5632 53.9298 41.6521 53.9298C40.5745 53.9298 39.7312 53.6075 39.1211 52.9616C38.5363 52.341 38.2454 51.5226 38.2454 50.5063C38.2454 49.4257 38.5646 48.5752 39.2058 47.9547C39.8527 47.3315 40.7948 47.0186 42.0307 47.0186Z" fill="black"/>
<path d="M44.515 55.5506L44.8652 55.2831C45.3878 54.8793 45.8229 54.2841 46.1703 53.4965L46.4133 52.9402L44.385 48.5698H45.8709L47.1364 51.5975L48.3172 48.5698H49.8426C49.6576 48.8132 49.433 49.2599 49.1703 49.9125L48.3737 51.774C47.3144 54.1384 46.4825 55.5466 45.8765 55.9999L44.515 55.5506Z" fill="black"/>
<path d="M54.7689 53.32C54.3734 53.6945 53.7533 53.8817 52.9101 53.8817C52.0923 53.8817 51.4242 53.6463 50.9045 53.1756C50.3804 52.6982 50.1191 52.063 50.1191 51.2713C50.1191 50.4662 50.3762 49.8043 50.8932 49.2867C51.4426 48.7451 52.1785 48.4736 53.1022 48.4736C53.7533 48.4736 54.2999 48.6074 54.7406 48.8748L54.5316 50.1586L54.492 50.1533C54.3225 49.9607 54.1446 49.835 53.9609 49.7735C53.6559 49.6745 53.3508 49.6237 53.0457 49.6237C52.7434 49.6237 52.5061 49.6612 52.3338 49.7361C52.1601 49.8083 52.0118 49.9099 51.8875 50.041C51.6417 50.3084 51.5203 50.6615 51.5203 51.1001C51.5203 51.8811 51.8056 52.3933 52.379 52.6353C52.5739 52.7142 52.7816 52.753 53.0005 52.753C53.2222 52.753 53.4143 52.7356 53.5768 52.6995C53.742 52.6648 53.8932 52.6139 54.0287 52.5498C54.3141 52.4147 54.509 52.2596 54.6107 52.0844L54.6446 52.1004L54.7689 53.32Z" fill="black"/>
<path d="M57.1065 53.2452C57.1065 53.5341 57.1135 53.7213 57.1291 53.8069H55.7844V46.3447H57.1065V53.2452Z" fill="black"/>
<path d="M58.3201 51.2338C58.3201 50.842 58.3893 50.4796 58.5291 50.1479C58.6718 49.8136 58.8709 49.5207 59.128 49.2707C59.6774 48.7398 60.3963 48.4736 61.2862 48.4736C62.039 48.4736 62.6435 48.709 63.0997 49.1797C63.5432 49.6331 63.7664 50.2041 63.7664 50.8915C63.7664 51.1563 63.7452 51.3355 63.7042 51.4318C63.354 51.5254 62.6365 51.5708 61.5517 51.5708H59.6873C59.7805 51.9319 59.9952 52.2114 60.3314 52.4107C60.6661 52.6073 61.1011 52.7049 61.6365 52.7049C62.1972 52.7049 62.6788 52.6113 63.0828 52.4214C63.1873 52.3719 63.2664 52.3237 63.3201 52.2769C63.3116 52.42 63.3031 52.5645 63.2918 52.7102L63.2353 53.4912C62.967 53.6664 62.5319 53.7854 61.9302 53.8496C61.7565 53.871 61.5884 53.8817 61.4274 53.8817C60.5305 53.8817 59.789 53.6343 59.2014 53.1382C58.6139 52.6434 58.3201 52.0081 58.3201 51.2338ZM62.3596 50.6026C62.2155 49.8832 61.8031 49.5221 61.1223 49.5221C60.587 49.5221 60.1802 49.7414 59.902 50.18C59.8144 50.3124 59.7494 50.4582 59.7042 50.6187C59.7904 50.6227 59.8935 50.6267 60.015 50.6294H60.4105C60.5376 50.6334 60.6619 50.6347 60.7833 50.6347H61.0884C61.265 50.6347 61.4401 50.6334 61.6139 50.6294L62.0489 50.6133C62.1647 50.6107 62.2692 50.6066 62.3596 50.6026Z" fill="black"/>
</svg>
